<?xml version="1.0" encoding="UTF-8"?>
<svg id="brand_identity" data-name="brand identity" xmlns="http://www.w3.org/2000/svg" viewBox="0 0 792 612">
  <defs>
    <style>
      .cls-1 {
        fill: #231f20;
      }
    </style>
  </defs>
  <g id="Alt_Lettermark" data-name="Alt Lettermark">
    <path class="cls-1" d="M636.6,182.2c-22.9,0-44.9,6.3-63.9,18V41.9h-58.3v231.8c-14.7-50.9-61.7-88.2-117.2-88.2s-44.8,6.2-63.8,17.9v-17.9h-58.3v98.3c-11.1-56-60.5-98.3-119.7-98.3s-122.1,54.8-122.1,122.1,54.8,122.1,122.1,122.1,93-29,112.2-74l7.5-17.5v231.9h58.3v-158.3c19,11.7,40.9,17.9,63.8,17.9,55.6,0,102.5-37.3,117.2-88.2v85h58.3v-109h.1v-13.2c0-35.2,28.6-63.8,63.8-63.8s63.8,28.6,63.8,63.8v105.3h.1c0,0,0,16.8,0,16.8h58.3v-122.1c0-67.4-54.8-122.2-122.2-122.2ZM397.2,371.4c-35.2,0-63.8-28.6-63.8-63.8s28.6-63.8,63.8-63.8,63.8,28.6,63.8,63.8-28.6,63.8-63.8,63.8ZM155.3,243.8c22,0,42.2,11.5,53.7,29.5h-107.5c11.5-17.9,31.7-29.5,53.7-29.5ZM212.2,337.4l-3.9,5.8c-11.9,17.7-31.7,28.2-52.9,28.2s-49.5-16.3-59.1-39.8h135.9s43,0,43,0v5.7h-62.9Z"/>
  </g>
</svg>